<?xml version="1.0" standalone="no"?>
<!DOCTYPE svg PUBLIC "-//W3C//DTD SVG 20010904//EN"
 "http://www.w3.org/TR/2001/REC-SVG-20010904/DTD/svg10.dtd">
<svg version="1.0" xmlns="http://www.w3.org/2000/svg"
 width="32.000000pt" height="32.000000pt" viewBox="0 0 32.000000 32.000000"
 preserveAspectRatio="xMidYMid meet">

<g transform="translate(0.000000,32.000000) scale(0.100000,-0.100000)"
fill="#000000" stroke="none">
<path d="M140 236 c0 -9 7 -19 15 -23 25 -9 27 2 5 22 -18 17 -20 17 -20 1z"/>
<path d="M151 174 c13 -15 64 -16 64 0 0 4 -17 10 -38 12 -34 3 -37 1 -26 -12z"/>
<path d="M123 152 c10 -10 17 -24 17 -30 0 -7 7 -12 15 -12 36 0 2 59 -34 60
-11 0 -11 -4 2 -18z"/>
<path d="M102 70 c0 -14 2 -19 5 -12 2 6 2 18 0 25 -3 6 -5 1 -5 -13z"/>
<path d="M131 73 c-1 -16 5 -23 17 -23 10 0 13 3 6 8 -6 4 -14 14 -17 22 -4
10 -6 8 -6 -7z"/>
<path d="M170 84 c0 -6 6 -17 14 -23 11 -9 15 -8 20 5 9 24 7 31 -4 14 -9 -13
-11 -13 -20 0 -5 8 -10 10 -10 4z"/>
<path d="M230 75 c0 -20 28 -31 43 -16 8 8 8 14 -2 24 -10 10 -11 9 -6 -5 5
-13 2 -18 -10 -18 -11 0 -15 5 -11 15 3 8 1 15 -4 15 -6 0 -10 -7 -10 -15z"/>
</g>
</svg>
