<?xml version="1.0" standalone="no"?>
<!DOCTYPE svg PUBLIC "-//W3C//DTD SVG 20010904//EN"
 "http://www.w3.org/TR/2001/REC-SVG-20010904/DTD/svg10.dtd">
<svg version="1.0" xmlns="http://www.w3.org/2000/svg"
 width="50.000000pt" height="50.000000pt" viewBox="0 0 50.000000 50.000000"
 preserveAspectRatio="xMidYMid meet">

<g transform="translate(0.000000,50.000000) scale(0.100000,-0.100000)"
fill="#000000" stroke="none">
<path d="M39 471 l-29 -29 0 -181 c0 -172 1 -181 22 -206 31 -35 79 -44 236
-45 148 0 190 11 211 56 7 16 11 92 11 205 0 244 15 229 -235 229 l-187 0 -29
-29z m349 -183 c-3 -54 -20 -73 -26 -29 -4 23 -6 22 -48 -20 l-44 -43 -33 32
-33 32 -39 -40 c-26 -27 -42 -37 -49 -30 -7 7 5 25 34 55 24 25 49 45 54 45 5
0 23 -12 38 -27 l28 -27 38 37 37 37 -28 0 c-17 0 -27 5 -27 15 0 11 12 15 51
15 l50 0 -3 -52z"/>
</g>
</svg>
